<?xml version="1.0" encoding="utf-8"?>
<!-- Generator: Adobe Illustrator 28.2.0, SVG Export Plug-In . SVG Version: 6.00 Build 0)  -->
<svg version="1.1" id="Capa_1" xmlns="http://www.w3.org/2000/svg" xmlns:xlink="http://www.w3.org/1999/xlink" x="0px" y="0px"
	 viewBox="0 0 1500 615.33" style="enable-background:new 0 0 1500 615.33;" xml:space="preserve">
<style type="text/css">
	.st0{fill:#882EF2;}
	.st1{fill:#FFFFFF;}
	.st2{opacity:0.75;fill:url(#SVGID_1_);}
	.st3{opacity:0.75;fill:url(#SVGID_00000018239052662337496330000014213763131988997773_);}
	.st4{opacity:0.75;fill:url(#SVGID_00000128444781997394824740000013515731057015761312_);}
</style>
<g>
	<g>
		<path class="st0" d="M211.32,516.23l18.49,20.05c-11.14,12.7-27.85,19.38-49.47,19.38c-41.44,0-68.4-26.07-68.4-61.72
			c0-35.87,27.18-61.72,64.17-61.72c33.87,0,61.72,22.28,61.94,60.61l-88.68,17.16c5.12,11.81,16.27,17.83,31.86,17.83
			C193.94,527.82,203.07,524.03,211.32,516.23z M146.03,490.38l58.38-11.36c-3.34-12.25-13.81-20.5-28.3-20.5
			C158.73,458.52,146.7,470.11,146.03,490.38z"/>
		<path class="st0" d="M376.65,388.56v165.33h-33.2v-13.81c-8.69,10.47-21.39,15.6-37.43,15.6c-33.87,0-59.94-24.06-59.94-61.72
			c0-37.65,26.07-61.72,59.94-61.72c14.71,0,27.18,4.68,35.87,14.48v-58.15H376.65z M342.56,493.95c0-20.72-13.37-33.2-30.53-33.2
			c-17.38,0-30.75,12.48-30.75,33.2s13.37,33.2,30.75,33.2C329.19,527.15,342.56,514.67,342.56,493.95z"/>
		<path class="st0" d="M522.6,434.01v119.88h-32.98v-14.26c-9.14,10.47-22.5,16.04-37.21,16.04c-30.08,0-51.25-16.93-51.25-53.92
			v-67.74h34.76v62.61c0,20.05,8.91,28.97,24.29,28.97c16.04,0,27.63-10.25,27.63-32.31v-59.27H522.6z"/>
		<path class="st1" d="M750.55,485.26v68.63h-34.76V490.6c0-19.38-8.69-28.3-22.73-28.3c-15.6,0-26.52,10.03-26.52,31.42v60.16
			h-34.76V490.6c0-19.38-8.24-28.3-22.73-28.3c-15.37,0-26.29,10.03-26.29,31.42v60.16h-34.76V434.01h33.2v13.81
			c8.91-10.25,22.28-15.6,37.66-15.6c16.71,0,30.97,6.46,39.44,19.61c9.58-12.25,25.18-19.61,43.23-19.61
			C730.05,432.23,750.55,448.71,750.55,485.26z"/>
		<path class="st1" d="M866.65,516.23l18.49,20.05c-11.14,12.7-27.85,19.38-49.47,19.38c-41.44,0-68.4-26.07-68.4-61.72
			c0-35.87,27.18-61.72,64.17-61.72c33.87,0,61.72,22.28,61.94,60.61l-88.68,17.16c5.12,11.81,16.26,17.83,31.86,17.83
			C849.27,527.82,858.4,524.03,866.65,516.23z M801.36,490.38l58.38-11.36c-3.34-12.25-13.81-20.5-28.3-20.5
			C814.06,458.52,802.03,470.11,801.36,490.38z M837.68,418.64H810.5l30.08-32.09h37.43L837.68,418.64z"/>
		<path class="st1" d="M982.07,548.09c-7.13,5.13-17.6,7.58-28.08,7.58c-28.52,0-44.79-14.48-44.79-43V407.49h34.76v29.19h29.63
			v26.74h-29.63v48.8c0,10.25,5.35,15.82,14.71,15.82c5.13,0,10.25-1.56,14.26-4.46L982.07,548.09z"/>
		<path class="st1" d="M1069.2,432.23v32.09c-2.9-0.22-5.12-0.45-7.8-0.45c-19.16,0-31.86,10.47-31.86,33.42v56.6h-34.76V434.01
			h33.2v15.82C1036.44,438.24,1050.7,432.23,1069.2,432.23z"/>
		<path class="st1" d="M1078.78,397.91c0-10.92,8.69-19.38,21.61-19.38c12.92,0,21.61,8.02,21.61,18.72
			c0,11.59-8.69,20.05-21.61,20.05C1087.47,417.3,1078.78,408.83,1078.78,397.91z M1083.01,434.01h34.76v119.88h-34.76V434.01z"/>
		<path class="st1" d="M1134.27,493.95c0-36.1,27.85-61.72,66.85-61.72c25.18,0,45.01,10.92,53.7,30.52l-26.96,14.48
			c-6.46-11.36-16.04-16.49-26.96-16.49c-17.6,0-31.42,12.25-31.42,33.2c0,20.95,13.81,33.2,31.42,33.2
			c10.92,0,20.5-4.9,26.96-16.49l26.96,14.71c-8.69,19.16-28.52,30.3-53.7,30.3C1162.12,555.67,1134.27,530.04,1134.27,493.95z"/>
		<path class="st1" d="M1388.06,434.01v119.88h-33.2v-13.81c-8.69,10.47-21.39,15.6-37.43,15.6c-33.87,0-59.94-24.06-59.94-61.72
			c0-37.65,26.07-61.72,59.94-61.72c14.71,0,27.18,4.68,35.87,14.48v-12.7H1388.06z M1353.97,493.95c0-20.72-13.37-33.2-30.52-33.2
			c-17.38,0-30.75,12.48-30.75,33.2s13.37,33.2,30.75,33.2C1340.6,527.15,1353.97,514.67,1353.97,493.95z"/>
	</g>
	<g>
		
			<linearGradient id="SVGID_1_" gradientUnits="userSpaceOnUse" x1="752.7344" y1="221.0589" x2="868.1849" y2="221.0589" gradientTransform="matrix(1 0 0 1 -104.513 0)">
			<stop  offset="0" style="stop-color:#D6BBF6"/>
			<stop  offset="1" style="stop-color:#882EF2"/>
		</linearGradient>
		<path class="st2" d="M648.22,89.92V352.2c0,3.8,4.13,6.17,7.41,4.24l105.61-61.94c1.51-0.88,2.43-2.5,2.43-4.24V152.65
			c0-1.74-0.91-3.34-2.41-4.23L655.65,85.69C652.37,83.74,648.22,86.1,648.22,89.92z"/>
		
			<linearGradient id="SVGID_00000011715804772534290730000012925624398949040792_" gradientUnits="userSpaceOnUse" x1="786.2938" y1="221.0589" x2="912.5009" y2="221.0589" gradientTransform="matrix(1 0 0 1 -104.513 0)">
			<stop  offset="0" style="stop-color:#D6BBF6"/>
			<stop  offset="1" style="stop-color:#882EF2"/>
		</linearGradient>
		<path style="opacity:0.75;fill:url(#SVGID_00000011715804772534290730000012925624398949040792_);" d="M681.78,76.9v288.32
			c0,3.8,4.13,6.17,7.41,4.24l116.37-68.25c1.51-0.88,2.43-2.5,2.43-4.24V146.02c0-1.74-0.91-3.34-2.41-4.23L689.21,72.67
			C685.93,70.72,681.78,73.08,681.78,76.9z"/>
		
			<linearGradient id="SVGID_00000063624938368015446880000017589812177315880590_" gradientUnits="userSpaceOnUse" x1="819.9202" y1="221.0589" x2="956.2916" y2="221.0589" gradientTransform="matrix(1 0 0 1 -104.513 0)">
			<stop  offset="0" style="stop-color:#D6BBF6"/>
			<stop  offset="1" style="stop-color:#882EF2"/>
		</linearGradient>
		<path style="opacity:0.75;fill:url(#SVGID_00000063624938368015446880000017589812177315880590_);" d="M715.41,64.59v312.93
			c0,3.8,4.13,6.17,7.41,4.24l126.53-74.21c1.51-0.88,2.43-2.5,2.43-4.24V139.75c0-1.74-0.91-3.34-2.41-4.23L722.84,60.36
			C719.56,58.42,715.41,60.78,715.41,64.59z"/>
	</g>
</g>
</svg>
