<svg xmlns="http://www.w3.org/2000/svg" version="1.1" xmlns:xlink="http://www.w3.org/1999/xlink" xmlns:svgjs="http://svgjs.dev/svgjs" width="1500" height="1500" viewBox="0 0 1500 1500"><rect width="1500" height="1500" fill="#000000"></rect><g transform="matrix(0.6666666666666666,0,0,0.6666666666666666,249.39393939393938,606.0862168867934)"><svg viewBox="0 0 396 113" data-background-color="#000000" preserveAspectRatio="xMidYMid meet" height="428" width="1500" xmlns="http://www.w3.org/2000/svg" xmlns:xlink="http://www.w3.org/1999/xlink"><g id="tight-bounds" transform="matrix(1,0,0,1,0.2400000000000091,0.49389307871152255)"><svg viewBox="0 0 395.52 112.01221384257694" height="112.01221384257694" width="395.52"><g><svg viewBox="0 0 550.9551582392517 156.03182393397523" height="112.01221384257694" width="395.52"><g transform="matrix(1,0,0,1,155.43515823925173,0)"><svg viewBox="0 0 395.52 156.03182393397523" height="156.03182393397523" width="395.52"><g id="textblocktransform"><svg viewBox="0 0 395.52 156.03182393397523" height="156.03182393397523" width="395.52" id="textblock"><g><svg viewBox="0 0 395.52 156.03182393397523" height="156.03182393397523" width="395.52"><g transform="matrix(1,0,0,1,0,0)"><svg width="395.52" viewBox="3.25 -35.01 88.74 35.01" height="156.03182393397523" data-palette-color="#ffffff"><path d="M27.76-7.01L27.76 0 3.25 0 3.25-35.01 10.25-35.01 10.25-7.01 27.76-7.01ZM45.41-28L38.4-28 38.4-13.99 45.41-13.99Q46.85-13.99 48.12-14.54 49.39-15.09 50.34-16.04 51.29-16.99 51.84-18.27 52.39-19.56 52.39-21L52.39-21Q52.39-22.44 51.84-23.72 51.29-25 50.34-25.95 49.39-26.9 48.12-27.45 46.85-28 45.41-28L45.41-28ZM38.4-7.01L38.4 0 31.39 0 31.39-35.01 45.41-35.01Q47.34-35.01 49.12-34.51 50.9-34.01 52.45-33.09 54-32.18 55.28-30.9 56.56-29.61 57.48-28.05 58.4-26.49 58.9-24.71 59.4-22.92 59.4-21L59.4-21Q59.4-19.19 58.95-17.48 58.49-15.77 57.65-14.23 56.81-12.7 55.59-11.4 54.37-10.11 52.85-9.16L52.85-9.16 56.74 0 49.29 0 46.24-7.06 38.4-7.01ZM78-28L70.99-28 70.99-13.99 78-13.99Q79.44-13.99 80.71-14.54 81.98-15.09 82.93-16.04 83.88-16.99 84.43-18.27 84.98-19.56 84.98-21L84.98-21Q84.98-22.44 84.43-23.72 83.88-25 82.93-25.95 81.98-26.9 80.71-27.45 79.44-28 78-28L78-28ZM70.99-7.01L70.99 0 63.98 0 63.98-35.01 78-35.01Q79.93-35.01 81.71-34.51 83.49-34.01 85.04-33.09 86.59-32.18 87.87-30.9 89.16-29.61 90.07-28.05 90.99-26.49 91.49-24.71 91.99-22.92 91.99-21L91.99-21Q91.99-18.12 90.89-15.56 89.79-13.01 87.89-11.11 85.98-9.2 83.43-8.11 80.88-7.01 78-7.01L78-7.01 70.99-7.01Z" opacity="1" transform="matrix(1,0,0,1,0,0)" fill="#ffffff" class="wordmark-text-0" data-fill-palette-color="primary" id="text-0"></path></svg></g></svg></g></svg></g></svg></g><g transform="matrix(1,0,0,1,0,18.716017280880322)"><svg viewBox="0 0 118.59978937221459 118.59978937221459" height="118.59978937221459" width="118.59978937221459"><g data-palette-color="#2a2c35"><rect width="32.41727576173866" height="118.59978937221459" fill="#ffffff" stroke="transparent" data-fill-palette-color="accent" x="0" fill-opacity="0.5"></rect><rect width="32.41727576173866" height="118.59978937221459" fill="#ffffff" stroke="transparent" data-fill-palette-color="accent" x="39.53326312407153" fill-opacity="0.75"></rect><rect width="32.41727576173866" height="118.59978937221459" fill="#ffffff" stroke="transparent" data-fill-palette-color="accent" x="79.06652624814306" fill-opacity="1"></rect></g></svg></g></svg></g><defs></defs></svg><rect width="395.52" height="112.01221384257694" fill="none" stroke="none" visibility="hidden"></rect></g></svg></g></svg>